<svg width="150" height="33" viewBox="0 0 150 33" fill="none" xmlns="http://www.w3.org/2000/svg">
<g clip-path="url(#clip0_5404_6754)">
<path d="M80.7411 0.597785V31.9844C80.7411 32.3146 80.4708 32.5822 80.1375 32.5822H76.1899C75.8566 32.5822 75.5864 32.3146 75.5864 31.9844V7.9367C75.5864 7.65818 75.3989 7.47264 75.1646 7.47264C74.9303 7.47264 74.7897 7.61176 74.696 7.89027L66.4462 32.1751C66.3636 32.4184 66.1334 32.5822 65.8742 32.5822H61.3051C61.0463 32.5822 60.8163 32.4188 60.7334 32.176L52.4372 7.89027C52.3435 7.61176 52.2029 7.47264 51.9686 7.47264C51.7343 7.47264 51.5469 7.65818 51.5469 7.9367V31.9844C51.5469 32.3146 51.2767 32.5822 50.9433 32.5822H46.9957C46.6624 32.5822 46.3922 32.3146 46.3922 31.9844V0.597785C46.3922 0.267633 46.6624 0 46.9957 0H54.114C54.3723 0 54.602 0.162818 54.6853 0.405002L63.2151 25.2024C63.3089 25.4809 63.4495 25.6202 63.6837 25.6202C63.9181 25.6202 64.0587 25.4809 64.1523 25.2024L72.6822 0.405002C72.7655 0.162818 72.9952 0 73.2535 0H80.1375C80.4708 0 80.7411 0.267633 80.7411 0.597785ZM104.551 16.8945V31.9844C104.551 32.3146 104.281 32.5822 103.947 32.5822H100.328C99.9944 32.5822 99.7242 32.3146 99.7242 31.9844V30.076C99.7242 29.751 99.5367 29.5653 99.3492 29.5653C99.1149 29.5653 99.0213 29.6582 98.7401 29.9831C97.0063 31.9325 94.6632 33 91.7579 33C87.3529 33 84.1195 30.5864 84.1195 26.2235C84.1195 21.6751 87.4935 19.5864 92.9763 18.6118L95.8816 18.1013C98.4589 17.6371 99.443 17.1266 99.443 15.7806C99.443 13.5527 97.7091 12.2532 94.8038 12.2532C92.2343 12.2532 90.3123 13.2956 90.0161 15.4921C89.976 15.7894 89.7217 16.0127 89.4188 16.0127L85.5652 16.0127C85.2033 16.0127 84.9259 15.6994 84.9652 15.3431C85.47 10.7728 89.3471 8.44732 94.8038 8.44732C100.661 8.44732 104.551 11 104.551 16.8945ZM99.5835 21.5394C99.5835 21.1214 99.1598 20.8275 98.7669 20.9803C98.1441 21.2226 97.3019 21.4024 96.3033 21.5822L94.0072 22C90.5394 22.6497 89.2742 23.9029 89.2742 25.9916C89.2742 27.8945 90.5863 29.194 92.9763 29.194C96.397 29.194 99.5835 26.9662 99.5835 22.9283V21.5394ZM126.027 8.91138H108.584C108.251 8.91138 107.98 9.17902 107.98 9.50916V12.5373C107.98 12.8674 108.251 13.135 108.584 13.135H118.852C119.18 13.135 119.321 13.3207 119.321 13.5527C119.321 13.6919 119.227 13.8312 119.133 13.9705L107.755 28.9209C107.597 29.1282 107.512 29.3809 107.512 29.6405V31.9844C107.512 32.3146 107.782 32.5822 108.115 32.5822H126.027C126.361 32.5822 126.631 32.3146 126.631 31.9844V29.0028C126.631 28.6726 126.361 28.405 126.027 28.405H115.15C114.822 28.405 114.682 28.2193 114.682 27.9873C114.682 27.8481 114.775 27.7088 114.869 27.5696L126.388 12.4335C126.546 12.2261 126.631 11.9735 126.631 11.7138V9.50916C126.631 9.17902 126.361 8.91138 126.027 8.91138ZM150 20.1899C150 20.6349 150 21.0581 149.985 21.4746C149.973 21.7945 149.705 22.0464 149.382 22.0464H134.279C133.931 22.0464 133.651 22.3371 133.676 22.6806C133.942 26.3532 135.776 29.0549 139.456 29.0549C142.298 29.0549 143.914 27.6833 144.375 26.0924C144.449 25.8389 144.686 25.6666 144.952 25.6666H148.888C149.264 25.6666 149.548 26.0045 149.483 26.3717C148.693 30.8172 144.626 33 139.456 33C132.802 33 128.35 28.6835 128.35 20.7468C128.35 12.9029 132.568 8.44732 139.503 8.44732C146.157 8.44732 150 12.578 150 20.1899ZM144.798 17.8228C144.798 14.2954 142.643 12.3925 139.503 12.3925C136.236 12.3925 134.294 14.4245 133.8 17.9632C133.762 18.2321 133.975 18.4725 134.249 18.4725H144.189C144.517 18.4725 144.798 18.2868 144.798 17.8228ZM35.4793 16.2927H27.2069C26.4152 16.2927 25.7735 15.657 25.7735 14.8729L25.7734 0.600822C25.7734 0.270671 25.5032 0.00303745 25.1699 0.00303745H21.2223C20.889 0.00303745 20.6188 0.270671 20.6188 0.600822V14.8729C20.6188 15.657 19.977 16.2927 19.1853 16.2927H16.8975C16.1059 16.2927 15.4642 15.6571 15.4641 14.8731V0.600822C15.4641 0.270671 15.1938 0.00303745 14.8605 0.00303745H10.9129C10.5796 0.00303745 10.3094 0.270671 10.3094 0.600822L10.3094 14.8729C10.3094 15.657 9.6676 16.2927 8.87594 16.2927H0.603544C0.270211 16.2927 0 16.5603 0 16.8905V31.9845C0 32.3147 0.270211 32.5823 0.603544 32.5823H9.70582C10.0392 32.5823 10.3094 32.3147 10.3094 31.9845V17.7122C10.3095 16.9282 10.9512 16.2927 11.7428 16.2927H14.0306C14.8223 16.2927 15.4641 16.9283 15.4641 17.7124V31.9845C15.4641 32.3147 15.7343 32.5823 16.0676 32.5823H20.0152C20.3485 32.5823 20.6188 32.3147 20.6188 31.9845V17.7124C20.6188 16.9283 21.2605 16.2927 22.0522 16.2927H24.34C25.1316 16.2927 25.7734 16.9282 25.7734 17.7122V31.9845C25.7734 32.3147 26.0437 32.5823 26.377 32.5823H35.4793C35.8126 32.5823 36.0828 32.3147 36.0828 31.9845V16.8905C36.0828 16.5603 35.8126 16.2927 35.4793 16.2927Z" fill="black"/>
</g>
<defs>
<clipPath id="clip0_5404_6754">
<rect width="150" height="33" fill="white"/>
</clipPath>
</defs>
</svg>
