<svg width="259" height="358" viewBox="0 0 259 358" fill="none" xmlns="http://www.w3.org/2000/svg">
<rect width="258.674" height="357.496" rx="12" fill="#F5F5F5"/>
<rect x="24" y="24" width="210.674" height="208.496" rx="36.6264" fill="#171717"/>
<path d="M175.878 77.2659H213.691V132.162H195.132C187.518 120.871 170.734 121.014 163.021 132.162H149.781C147.909 132.162 146.341 133.582 146.155 135.445L141.537 181.76L131.912 42.6426H175.878V77.2659Z" fill="#D9D9D9"/>
<path d="M127.364 42.6426L120.919 138.246L120.036 134.882L119.994 134.733C119.525 133.211 118.116 132.162 116.511 132.162H104.895L98.9334 112.875C97.8795 109.465 93.0605 109.445 91.9784 112.846L85.8322 132.162H45.1299V77.2659H80.6643V42.6426H127.364Z" fill="#D9D9D9"/>
<path d="M87.4979 134.212H45.1299V176.352H82.031V214.164H177.473V176.58H213.691V134.212H193.873C187.319 122.947 170.967 123.037 164.261 134.212H150.232C149.274 134.212 148.472 134.938 148.377 135.891L143.231 187.506C143.004 189.781 139.671 189.729 139.516 187.448L129.638 42.6426L123.107 141.016C122.967 143.125 119.98 143.411 119.443 141.366L117.931 135.603C117.715 134.783 116.975 134.212 116.127 134.212H103.215L97.2258 114.835C96.6867 113.091 94.2215 113.081 93.6679 114.82L87.4979 134.212Z" fill="#EA1212"/>
<path d="M54.0908 322.816C52.9388 322.816 51.8348 322.677 50.7788 322.4C49.7228 322.112 48.7575 321.691 47.8828 321.136C47.0188 320.571 46.3041 319.872 45.7388 319.04C45.1735 318.197 44.8268 317.216 44.6988 316.096H48.7308C48.9015 316.875 49.2375 317.531 49.7388 318.064C50.2508 318.597 50.8961 319.003 51.6748 319.28C52.4535 319.557 53.3228 319.696 54.2828 319.696C55.1361 319.696 55.9308 319.568 56.6668 319.312C57.4028 319.056 58.0001 318.677 58.4588 318.176C58.9175 317.664 59.1468 317.035 59.1468 316.288C59.1468 315.445 58.8481 314.789 58.2508 314.32C57.6641 313.84 56.8215 313.461 55.7228 313.184L51.1948 312.112C50.0215 311.845 48.9975 311.456 48.1228 310.944C47.2588 310.432 46.5868 309.76 46.1068 308.928C45.6268 308.085 45.3868 307.056 45.3868 305.84C45.3868 304.453 45.7655 303.253 46.5228 302.24C47.2908 301.227 48.3308 300.448 49.6428 299.904C50.9548 299.349 52.4321 299.072 54.0748 299.072C55.9521 299.072 57.5361 299.387 58.8268 300.016C60.1175 300.635 61.0988 301.467 61.7708 302.512C62.4428 303.557 62.7841 304.704 62.7948 305.952H58.8588C58.7735 305.024 58.5015 304.293 58.0428 303.76C57.5841 303.216 57.0028 302.821 56.2988 302.576C55.5948 302.331 54.8161 302.208 53.9628 302.208C52.4481 302.208 51.3228 302.533 50.5868 303.184C49.8508 303.835 49.4828 304.597 49.4828 305.472C49.4828 306.293 49.7548 306.944 50.2988 307.424C50.8428 307.904 51.6748 308.277 52.7948 308.544L57.0988 309.552C58.5388 309.851 59.6961 310.309 60.5708 310.928C61.4455 311.547 62.0801 312.283 62.4748 313.136C62.8801 313.979 63.0828 314.912 63.0828 315.936C63.0828 317.28 62.6988 318.469 61.9308 319.504C61.1735 320.539 60.1228 321.349 58.7788 321.936C57.4348 322.523 55.8721 322.816 54.0908 322.816ZM67.2213 322.496V305.952H70.9493V322.496H67.2213ZM67.1573 303.056V299.376H71.0133V303.056H67.1573ZM75.7136 322.496V305.952H79.5056V308.32C79.9856 307.595 80.6362 306.965 81.4576 306.432C82.2896 305.899 83.3456 305.632 84.6256 305.632C85.2122 305.632 85.8042 305.733 86.4016 305.936C87.0096 306.139 87.5696 306.437 88.0816 306.832C88.6042 307.227 89.0202 307.717 89.3296 308.304C89.8522 307.525 90.5456 306.885 91.4096 306.384C92.2842 305.883 93.2656 305.632 94.3536 305.632C94.9509 305.632 95.5642 305.728 96.1936 305.92C96.8336 306.112 97.4202 306.432 97.9536 306.88C98.4869 307.328 98.9189 307.941 99.2496 308.72C99.5802 309.488 99.7456 310.453 99.7456 311.616V322.496H95.8576V312.08C95.8576 311.259 95.7136 310.613 95.4256 310.144C95.1376 309.675 94.7642 309.344 94.3056 309.152C93.8576 308.949 93.3776 308.848 92.8656 308.848C92.4069 308.848 91.9269 308.939 91.4256 309.12C90.9349 309.301 90.5136 309.6 90.1616 310.016C89.8202 310.432 89.6496 310.992 89.6496 311.696V322.496H85.7616V311.456C85.7616 310.88 85.6122 310.4 85.3136 310.016C85.0149 309.632 84.6362 309.344 84.1776 309.152C83.7296 308.949 83.2709 308.848 82.8016 308.848C82.3216 308.848 81.8309 308.949 81.3296 309.152C80.8389 309.355 80.4282 309.664 80.0976 310.08C79.7669 310.496 79.6016 311.035 79.6016 311.696V322.496H75.7136ZM110.162 322.816C109.352 322.816 108.568 322.699 107.81 322.464C107.064 322.219 106.392 321.867 105.794 321.408C105.197 320.939 104.722 320.363 104.37 319.68C104.018 318.997 103.842 318.203 103.842 317.296V305.952H107.746V316.848C107.746 317.744 108.029 318.48 108.594 319.056C109.17 319.632 110.034 319.92 111.186 319.92C112.232 319.92 113.069 319.648 113.698 319.104C114.328 318.549 114.642 317.755 114.642 316.72V305.952H118.514V322.496H115.522L115.09 319.264C114.888 320.171 114.53 320.885 114.018 321.408C113.517 321.92 112.925 322.283 112.242 322.496C111.57 322.709 110.877 322.816 110.162 322.816ZM128 322.736C126.934 322.736 126.08 322.603 125.44 322.336C124.8 322.069 124.32 321.712 124 321.264C123.68 320.816 123.472 320.315 123.376 319.76C123.28 319.195 123.232 318.619 123.232 318.032V298.72H127.04V317.584C127.04 318.299 127.184 318.853 127.472 319.248C127.771 319.643 128.251 319.872 128.912 319.936L129.744 319.968V322.416C129.456 322.501 129.163 322.576 128.864 322.64C128.566 322.704 128.278 322.736 128 322.736ZM138.166 322.816C137.11 322.816 136.161 322.624 135.318 322.24C134.486 321.845 133.83 321.285 133.35 320.56C132.881 319.824 132.646 318.933 132.646 317.888C132.646 316.064 133.302 314.688 134.614 313.76C135.937 312.832 138.038 312.347 140.918 312.304L143.398 312.24V311.12C143.398 310.245 143.137 309.563 142.614 309.072C142.102 308.571 141.302 308.325 140.214 308.336C139.404 308.347 138.668 308.539 138.006 308.912C137.345 309.275 136.908 309.888 136.694 310.752H133.382C133.446 309.621 133.772 308.677 134.358 307.92C134.956 307.152 135.772 306.581 136.806 306.208C137.841 305.824 139.036 305.632 140.39 305.632C141.969 305.632 143.254 305.84 144.246 306.256C145.238 306.672 145.969 307.275 146.438 308.064C146.908 308.843 147.142 309.787 147.142 310.896V322.496H143.862L143.542 319.52C142.956 320.768 142.204 321.632 141.286 322.112C140.38 322.581 139.34 322.816 138.166 322.816ZM139.43 320.176C139.91 320.176 140.385 320.091 140.854 319.92C141.324 319.739 141.745 319.499 142.118 319.2C142.502 318.891 142.806 318.549 143.03 318.176C143.265 317.803 143.388 317.413 143.398 317.008V314.4L141.366 314.432C140.364 314.443 139.484 314.549 138.726 314.752C137.98 314.955 137.398 315.28 136.982 315.728C136.566 316.165 136.358 316.752 136.358 317.488C136.358 318.331 136.652 318.992 137.238 319.472C137.825 319.941 138.556 320.176 139.43 320.176ZM152.031 322.496V299.36H157.599L163.663 317.04L169.791 299.36H175.327V322.496H171.375V304.352L165.279 322.496H162.031L155.983 304.464V322.496H152.031ZM187.463 322.816C185.874 322.816 184.471 322.48 183.255 321.808C182.05 321.125 181.106 320.155 180.423 318.896C179.751 317.637 179.415 316.139 179.415 314.4C179.415 312.704 179.719 311.2 180.327 309.888C180.946 308.565 181.836 307.525 182.999 306.768C184.172 306.011 185.586 305.632 187.239 305.632C188.871 305.632 190.242 305.979 191.351 306.672C192.46 307.365 193.303 308.336 193.879 309.584C194.455 310.821 194.743 312.272 194.743 313.936V315.12H183.303C183.292 316.059 183.442 316.891 183.751 317.616C184.06 318.341 184.519 318.912 185.127 319.328C185.735 319.733 186.487 319.936 187.383 319.936C188.3 319.936 189.095 319.733 189.767 319.328C190.45 318.912 190.903 318.283 191.127 317.44H194.679C194.487 318.592 194.028 319.568 193.303 320.368C192.588 321.168 191.714 321.776 190.679 322.192C189.655 322.608 188.583 322.816 187.463 322.816ZM183.287 312.704H191.063C191.063 311.904 190.919 311.184 190.631 310.544C190.354 309.893 189.932 309.381 189.367 309.008C188.802 308.624 188.087 308.432 187.223 308.432C186.37 308.432 185.65 308.64 185.063 309.056C184.476 309.472 184.034 310.011 183.735 310.672C183.436 311.323 183.287 312 183.287 312.704ZM204.758 322.816C202.571 322.816 200.854 322.064 199.606 320.56C198.358 319.056 197.734 316.917 197.734 314.144C197.734 312.416 197.984 310.917 198.486 309.648C198.998 308.368 199.75 307.381 200.742 306.688C201.734 305.984 202.955 305.632 204.406 305.632C205.088 305.632 205.707 305.717 206.262 305.888C206.827 306.048 207.328 306.261 207.766 306.528C208.203 306.795 208.571 307.088 208.87 307.408C209.179 307.728 209.419 308.048 209.59 308.368V298.72H213.51V322.496H210.63L210.198 319.104C210.059 319.499 209.862 319.915 209.606 320.352C209.36 320.779 209.024 321.179 208.598 321.552C208.182 321.925 207.659 322.229 207.03 322.464C206.4 322.699 205.643 322.816 204.758 322.816ZM205.558 319.952C206.955 319.952 207.974 319.499 208.614 318.592C209.264 317.675 209.59 316.16 209.59 314.048C209.579 312.843 209.43 311.829 209.142 311.008C208.864 310.187 208.438 309.568 207.862 309.152C207.286 308.736 206.534 308.528 205.606 308.528C204.432 308.528 203.467 308.96 202.71 309.824C201.963 310.688 201.59 312.096 201.59 314.048C201.59 315.989 201.936 317.461 202.63 318.464C203.323 319.456 204.299 319.952 205.558 319.952Z" fill="#171717"/>
</svg>
